<?xml version="1.0" encoding="UTF-8"?>
<svg width="174px" height="51px" viewBox="0 0 174 51" version="1.1" xmlns="http://www.w3.org/2000/svg" xmlns:xlink="http://www.w3.org/1999/xlink">
    <!-- Generator: Sketch 41.2 (35397) - http://www.bohemiancoding.com/sketch -->
    <title>Path 2</title>
    <desc>Created with Sketch.</desc>
    <defs></defs>
    <g id="Welcome" stroke="none" stroke-width="1" fill="none" fill-rule="evenodd" stroke-dasharray="5,8">
        <g id="Mobile-Portrait" transform="translate(-69.000000, -491.000000)" stroke="#EEEEEE" stroke-width="3">
            <path d="M69,537.470603 C69,537.470603 89.78125,537.470603 102.914062,537.470603 C116.046875,537.470603 110.586819,536.775291 116.703125,536.775291 C122.879481,536.775291 125.550781,532.22451 129.142578,524.837791 C132.734375,517.451072 134.563216,511.07436 138.542969,506.820313 C142.38872,502.709502 139.743589,502.259715 148.130859,497.086914 C152.667426,494.289013 153.383663,493 158.771484,493 C161.547582,493 168.582413,493.828685 170.636719,494.264648 C178.772461,495.991211 181.12718,497.272061 186.797852,499.989258 C195.329102,504.077148 201.285156,513.876866 203.792969,516.443072 C206.300781,519.009277 211.597656,531.201072 222.671875,536.775291 C233.746094,542.34951 244.300781,539.044822 244.300781,537.470603" id="Path-2"></path>
        </g>
    </g>
</svg>